<mxfile host="app.diagrams.net" agent="Mozilla/5.0 (Windows NT 10.0; Win64; x64; rv:131.0) Gecko/20100101 Firefox/131.0" version="24.7.17">
  <diagram name="Страница — 1" id="5Dld3caQmMxo1C7QHOj8">
    <mxGraphModel dx="402" dy="667" grid="1" gridSize="10" guides="1" tooltips="1" connect="1" arrows="1" fold="1" page="1" pageScale="1" pageWidth="850" pageHeight="1100" math="0" shadow="0">
      <root>
        <mxCell id="0" />
        <mxCell id="1" parent="0" />
        <mxCell id="L3WQfKF7i3tltlz1G_0V-2" value="&lt;font style=&quot;font-size: 14px;&quot;&gt;веб-интерфейс&lt;/font&gt;" style="ellipse;whiteSpace=wrap;html=1;" vertex="1" parent="1">
          <mxGeometry x="580" y="409.99755397292427" width="90" height="60" as="geometry" />
        </mxCell>
        <mxCell id="L3WQfKF7i3tltlz1G_0V-3" value="сервер" style="ellipse;whiteSpace=wrap;html=1;" vertex="1" parent="1">
          <mxGeometry x="600" y="319.99755397292427" width="100" height="60" as="geometry" />
        </mxCell>
        <mxCell id="L3WQfKF7i3tltlz1G_0V-4" value="&lt;font style=&quot;font-size: 14px;&quot;&gt;пользователь&lt;/font&gt;" style="ellipse;whiteSpace=wrap;html=1;" vertex="1" parent="1">
          <mxGeometry x="669.9999999999999" y="499.99755397292427" width="100" height="60" as="geometry" />
        </mxCell>
        <mxCell id="L3WQfKF7i3tltlz1G_0V-5" value="&lt;font style=&quot;font-size: 14px;&quot;&gt;ультразвуковые изображения&lt;/font&gt;" style="ellipse;whiteSpace=wrap;html=1;" vertex="1" parent="1">
          <mxGeometry x="670" y="219.99755397292427" width="120" height="80" as="geometry" />
        </mxCell>
        <mxCell id="L3WQfKF7i3tltlz1G_0V-6" value="&lt;font style=&quot;font-size: 14px;&quot;&gt;отчет о результатах диагностики&lt;/font&gt;" style="ellipse;whiteSpace=wrap;html=1;" vertex="1" parent="1">
          <mxGeometry x="450" y="379.99755397292427" width="120" height="70" as="geometry" />
        </mxCell>
        <mxCell id="L3WQfKF7i3tltlz1G_0V-7" value="распознавание" style="ellipse;whiteSpace=wrap;html=1;" vertex="1" parent="1">
          <mxGeometry x="500" y="210" width="100" height="69.51" as="geometry" />
        </mxCell>
        <mxCell id="L3WQfKF7i3tltlz1G_0V-9" value="" style="endArrow=classic;html=1;rounded=0;" edge="1" parent="1" source="L3WQfKF7i3tltlz1G_0V-3" target="L3WQfKF7i3tltlz1G_0V-2">
          <mxGeometry width="50" height="50" relative="1" as="geometry">
            <mxPoint x="690" y="660.4875539729243" as="sourcePoint" />
            <mxPoint x="740" y="610.4875539729243" as="targetPoint" />
          </mxGeometry>
        </mxCell>
        <mxCell id="L3WQfKF7i3tltlz1G_0V-30" value="включает" style="edgeLabel;html=1;align=center;verticalAlign=middle;resizable=0;points=[];" vertex="1" connectable="0" parent="L3WQfKF7i3tltlz1G_0V-9">
          <mxGeometry x="0.0888" y="-2" relative="1" as="geometry">
            <mxPoint y="1" as="offset" />
          </mxGeometry>
        </mxCell>
        <mxCell id="L3WQfKF7i3tltlz1G_0V-10" value="" style="endArrow=classic;html=1;rounded=0;exitX=0.273;exitY=0.996;exitDx=0;exitDy=0;exitPerimeter=0;entryX=0;entryY=0;entryDx=0;entryDy=0;" edge="1" parent="1" source="L3WQfKF7i3tltlz1G_0V-2" target="L3WQfKF7i3tltlz1G_0V-4">
          <mxGeometry width="50" height="50" relative="1" as="geometry">
            <mxPoint x="690" y="660.4875539729243" as="sourcePoint" />
            <mxPoint x="740" y="610.4875539729243" as="targetPoint" />
          </mxGeometry>
        </mxCell>
        <mxCell id="L3WQfKF7i3tltlz1G_0V-26" value="предоставляет интерфейс " style="edgeLabel;html=1;align=center;verticalAlign=middle;resizable=0;points=[];" vertex="1" connectable="0" parent="L3WQfKF7i3tltlz1G_0V-10">
          <mxGeometry x="0.0081" relative="1" as="geometry">
            <mxPoint as="offset" />
          </mxGeometry>
        </mxCell>
        <mxCell id="L3WQfKF7i3tltlz1G_0V-11" value="" style="endArrow=classic;html=1;rounded=0;" edge="1" parent="1" source="L3WQfKF7i3tltlz1G_0V-7" target="L3WQfKF7i3tltlz1G_0V-5">
          <mxGeometry width="50" height="50" relative="1" as="geometry">
            <mxPoint x="690" y="660.4875539729243" as="sourcePoint" />
            <mxPoint x="830" y="600.4875539729243" as="targetPoint" />
          </mxGeometry>
        </mxCell>
        <mxCell id="L3WQfKF7i3tltlz1G_0V-27" value="сканирует" style="edgeLabel;html=1;align=center;verticalAlign=middle;resizable=0;points=[];" vertex="1" connectable="0" parent="L3WQfKF7i3tltlz1G_0V-11">
          <mxGeometry x="-0.2071" y="-3" relative="1" as="geometry">
            <mxPoint as="offset" />
          </mxGeometry>
        </mxCell>
        <mxCell id="L3WQfKF7i3tltlz1G_0V-32" value="" style="endArrow=classic;html=1;rounded=0;exitX=0.7;exitY=0;exitDx=0;exitDy=0;exitPerimeter=0;entryX=1;entryY=1;entryDx=0;entryDy=0;" edge="1" parent="1" source="L3WQfKF7i3tltlz1G_0V-4" target="L3WQfKF7i3tltlz1G_0V-2">
          <mxGeometry width="50" height="50" relative="1" as="geometry">
            <mxPoint x="695" y="410" as="sourcePoint" />
            <mxPoint x="705" y="489" as="targetPoint" />
          </mxGeometry>
        </mxCell>
        <mxCell id="L3WQfKF7i3tltlz1G_0V-33" value="управляет" style="edgeLabel;html=1;align=center;verticalAlign=middle;resizable=0;points=[];" vertex="1" connectable="0" parent="L3WQfKF7i3tltlz1G_0V-32">
          <mxGeometry x="0.0081" relative="1" as="geometry">
            <mxPoint as="offset" />
          </mxGeometry>
        </mxCell>
        <mxCell id="L3WQfKF7i3tltlz1G_0V-34" value="запускает" style="endArrow=classic;html=1;rounded=0;entryX=0.894;entryY=0.83;entryDx=0;entryDy=0;entryPerimeter=0;" edge="1" parent="1" source="L3WQfKF7i3tltlz1G_0V-3" target="L3WQfKF7i3tltlz1G_0V-7">
          <mxGeometry width="50" height="50" relative="1" as="geometry">
            <mxPoint x="695" y="410" as="sourcePoint" />
            <mxPoint x="690" y="290" as="targetPoint" />
          </mxGeometry>
        </mxCell>
        <mxCell id="L3WQfKF7i3tltlz1G_0V-37" value="" style="endArrow=classic;html=1;rounded=0;" edge="1" parent="1" source="L3WQfKF7i3tltlz1G_0V-3" target="L3WQfKF7i3tltlz1G_0V-5">
          <mxGeometry width="50" height="50" relative="1" as="geometry">
            <mxPoint x="566" y="337" as="sourcePoint" />
            <mxPoint x="740" y="160" as="targetPoint" />
          </mxGeometry>
        </mxCell>
        <mxCell id="L3WQfKF7i3tltlz1G_0V-38" value="хранит" style="edgeLabel;html=1;align=center;verticalAlign=middle;resizable=0;points=[];" vertex="1" connectable="0" parent="L3WQfKF7i3tltlz1G_0V-37">
          <mxGeometry x="-0.2071" y="-3" relative="1" as="geometry">
            <mxPoint as="offset" />
          </mxGeometry>
        </mxCell>
        <mxCell id="L3WQfKF7i3tltlz1G_0V-40" value="" style="endArrow=classic;html=1;rounded=0;" edge="1" parent="1" source="L3WQfKF7i3tltlz1G_0V-7" target="L3WQfKF7i3tltlz1G_0V-6">
          <mxGeometry width="50" height="50" relative="1" as="geometry">
            <mxPoint x="625" y="280" as="sourcePoint" />
            <mxPoint x="699" y="229" as="targetPoint" />
          </mxGeometry>
        </mxCell>
        <mxCell id="L3WQfKF7i3tltlz1G_0V-41" value="возвращает" style="edgeLabel;html=1;align=center;verticalAlign=middle;resizable=0;points=[];" vertex="1" connectable="0" parent="L3WQfKF7i3tltlz1G_0V-40">
          <mxGeometry x="-0.2071" y="-3" relative="1" as="geometry">
            <mxPoint as="offset" />
          </mxGeometry>
        </mxCell>
        <mxCell id="L3WQfKF7i3tltlz1G_0V-42" value="" style="endArrow=classic;html=1;rounded=0;" edge="1" parent="1" source="L3WQfKF7i3tltlz1G_0V-3" target="L3WQfKF7i3tltlz1G_0V-6">
          <mxGeometry width="50" height="50" relative="1" as="geometry">
            <mxPoint x="571" y="337" as="sourcePoint" />
            <mxPoint x="539" y="392" as="targetPoint" />
          </mxGeometry>
        </mxCell>
        <mxCell id="L3WQfKF7i3tltlz1G_0V-43" value="получает" style="edgeLabel;html=1;align=center;verticalAlign=middle;resizable=0;points=[];" vertex="1" connectable="0" parent="L3WQfKF7i3tltlz1G_0V-42">
          <mxGeometry x="-0.2071" y="-3" relative="1" as="geometry">
            <mxPoint as="offset" />
          </mxGeometry>
        </mxCell>
      </root>
    </mxGraphModel>
  </diagram>
</mxfile>
